<svg width="25" height="25" viewBox="0 0 512 450" fill="none" xmlns="http://www.w3.org/2000/svg">
    <path
        d="M6.6 1.89999C2 4.99999 0 8.79999 0 15C0 21.2 2 25 6.6 28.1C9.3 29.9 12 30 51 30H92.5L119.3 150.8C134 217.2 146 271.9 146 272.5C146 273 143.7 274.8 140.9 276.5C134.2 280.4 127.7 287.9 123.8 296C121.1 301.6 120.6 303.9 120.2 312.6C119.9 320.5 120.1 323.9 121.5 328.1C126.1 342.4 136.7 353.2 150.7 358.1C155.2 359.6 159.2 360 170.9 360.1H185.5L180.3 362C161.5 368.7 150 385.1 150 405C150 430.9 169.1 450 195 450C220.9 450 240 430.9 240 405C240 385.1 228.5 368.7 209.7 362C204.6 360.2 205.7 360.1 301 360.1C396.3 360.1 397.4 360.2 392.3 362C373.5 368.7 362 385.1 362 405C362 430.9 381.1 450 407 450C432.9 450 452 430.9 452 405C452 385 440.5 368.7 421.6 362L416.5 360.1H429.5C440.5 360 442.9 359.7 445.4 358.1C450 355 452 351.2 452 345C452 339.1 450.1 335.2 445.9 332.2C443.7 330.6 432.9 330.5 302.5 330L161.5 329.5L158 327.3C148.5 321.4 148.6 307.5 158.2 302.3C161.3 300.6 168.9 300.5 302.1 300.2L442.8 300L446.9 296.2L451 292.5L481.5 185.8C502.1 113.8 512 77.5 512 74.3C512 71.1 511.3 68.6 509.8 66.3C505.1 59.5 520.4 60 316.1 60H131L130.5 57.7C130.2 56.5 127.8 45.6 125.1 33.5C122.4 21.4 119.7 10.3 119.2 8.89999C118.6 7.39999 116.4 4.89999 114.3 3.09999L110.5 -6.70552e-06H60C12.2 -6.70552e-06 9.3 0.0999933 6.6 1.89999ZM476 91.2C475.9 91.9 464.5 132.3 450.6 181L425.3 269.5L301.4 269.7L177.5 270L157.7 180.7C146.8 131.7 138 91.2 138 90.7C138 90.3 214.1 90 307 90C441.6 90 476 90.3 476 91.2ZM202.4 392.9C206.7 395.8 209 399.9 209 405C209 413 203 419 195 419C187 419 181 413 181 405C181 397 187 391 195 391C197.7 391 200.6 391.8 202.4 392.9ZM414.4 392.9C418.7 395.8 421 399.9 421 405C421 413 415 419 407 419C399 419 393 413 393 405C393 397 399 391 407 391C409.7 391 412.6 391.8 414.4 392.9Z"
        fill="black" />
</svg>